<?xml version="1.0" standalone="no"?>
<!DOCTYPE svg PUBLIC "-//W3C//DTD SVG 20010904//EN"
 "http://www.w3.org/TR/2001/REC-SVG-20010904/DTD/svg10.dtd">
<svg version="1.0" xmlns="http://www.w3.org/2000/svg"
 width="1200.000000pt" height="630.000000pt" viewBox="0 0 1200.000000 630.000000"
 preserveAspectRatio="xMidYMid meet">

<g transform="translate(0.000000,630.000000) scale(0.100000,-0.100000)"
fill="#000000" stroke="none">
<path d="M0 3150 l0 -3150 6000 0 6000 0 0 3150 0 3150 -6000 0 -6000 0 0
-3150z m4326 760 c18 -12 42 -40 54 -66 29 -59 21 -103 -29 -156 -32 -35 -45
-41 -87 -45 -158 -16 -229 187 -95 271 37 22 116 20 157 -4z m1202 -10 c41 -5
92 -15 114 -22 33 -10 39 -15 35 -32 -14 -53 -53 -175 -59 -181 -4 -4 -33 6
-65 21 -48 24 -70 29 -133 28 -121 0 -180 -42 -180 -127 0 -51 33 -91 181
-219 112 -96 141 -127 169 -179 90 -169 27 -347 -154 -434 -97 -47 -197 -61
-314 -46 -101 13 -211 47 -219 68 -5 13 38 163 55 190 5 9 24 3 69 -19 70 -34
158 -48 240 -37 67 9 101 32 126 82 16 31 17 43 7 71 -12 37 -74 102 -155 162
-120 90 -164 135 -197 201 -70 144 -26 319 103 409 95 66 212 85 377 64z
m1394 -25 c42 -28 65 -85 54 -131 -9 -36 -66 -90 -104 -97 -74 -15 -162 49
-162 119 0 109 120 171 212 109z m711 9 c26 -9 49 -19 51 -23 6 -9 -23 -143
-33 -153 -3 -4 -29 -1 -56 8 -86 25 -139 2 -180 -79 -42 -85 -40 -87 70 -87
l95 0 -6 -47 c-4 -27 -9 -64 -13 -83 l-7 -35 -99 -5 -100 -5 -17 -100 c-119
-699 -118 -695 -163 -761 -58 -84 -160 -144 -244 -144 -37 0 -37 1 -58 65
l-21 65 48 25 c81 41 96 69 130 256 17 90 42 223 55 294 13 72 29 159 35 195
6 36 13 75 15 88 5 21 2 22 -49 22 -30 0 -57 4 -60 9 -3 4 1 39 9 77 8 38 15
72 15 77 0 4 26 7 58 7 l58 0 18 58 c26 81 51 127 99 179 88 95 235 136 350
97z m-1556 -46 c-3 -24 -15 -107 -27 -186 -13 -78 -21 -145 -18 -147 2 -3 24
5 49 17 37 19 60 23 150 23 100 0 108 -2 154 -30 30 -19 61 -49 78 -77 47 -75
46 -134 -4 -393 -23 -121 -47 -247 -53 -280 l-11 -60 -94 -3 c-52 -1 -100 -1
-107 2 -9 3 -5 40 16 143 82 416 83 423 71 464 -21 70 -111 90 -206 45 -88
-41 -79 -14 -171 -503 l-28 -153 -103 0 c-83 0 -103 3 -103 14 0 8 9 61 20
118 11 57 28 153 39 213 69 384 150 815 155 824 5 7 44 11 103 11 l96 0 -6
-42z m-1399 -82 c33 -32 37 -42 37 -85 0 -59 -24 -98 -79 -125 -52 -25 -100
-15 -148 34 -32 31 -38 44 -38 79 0 89 59 145 143 138 40 -3 56 -11 85 -41z
m3362 34 c0 -6 -11 -58 -25 -116 -14 -58 -25 -110 -25 -115 0 -5 50 -9 110 -9
125 0 118 7 97 -95 l-13 -60 -115 -3 -116 -3 -17 -62 c-8 -34 -25 -102 -36
-152 -11 -49 -24 -106 -30 -125 -5 -19 -10 -58 -10 -87 0 -57 14 -79 58 -90
24 -6 108 11 155 32 16 7 18 1 15 -86 l-3 -94 -55 -12 c-89 -18 -218 -16 -266
6 -50 23 -101 83 -115 136 -14 51 -8 90 46 324 25 106 45 197 45 202 0 5 -20
9 -45 9 -25 0 -45 5 -45 11 0 5 7 41 16 80 l16 69 47 0 48 0 19 86 19 87 105
38 c118 42 120 43 120 29z m-4032 -116 c80 -53 50 -177 -48 -199 -39 -8 -97
20 -115 56 -56 107 61 210 163 143z m309 -69 c52 -15 126 -77 138 -115 6 -18
7 -18 48 0 80 37 170 15 223 -56 l29 -37 3 -256 c3 -291 1 -300 -77 -355 -60
-44 -147 -41 -212 5 -13 10 -24 4 -60 -32 -90 -90 -218 -92 -306 -4 l-43 42
-49 -24 c-67 -34 -118 -25 -175 27 l-41 39 -3 247 c-3 269 -1 287 50 329 52
44 107 50 179 20 13 -5 18 1 23 27 12 63 84 130 161 149 46 11 57 10 112 -6z
m2618 -97 c-4 -24 -22 -124 -41 -223 -51 -269 -94 -495 -102 -540 l-8 -40 -94
-3 c-51 -1 -99 -1 -106 2 -9 3 -10 16 -3 48 4 24 24 131 44 238 20 107 45 237
55 289 10 52 17 98 15 101 -2 4 -22 6 -44 5 -22 -1 -44 1 -50 4 -9 6 11 130
25 152 3 5 75 9 160 9 l156 0 -7 -42z"/>
<path d="M4427 3405 c-24 -51 -25 -486 -2 -543 13 -29 18 -34 25 -22 12 18 13
600 2 600 -5 0 -16 -16 -25 -35z"/>
<path d="M4042 3125 c2 -198 6 -277 15 -286 25 -25 33 40 33 268 0 186 -3 231
-16 259 -9 19 -21 34 -26 34 -6 0 -8 -107 -6 -275z"/>
</g>
</svg>
